<?xml version="1.0" encoding="UTF-8"?>
<svg version="1.1" xmlns="http://www.w3.org/2000/svg" width="256" height="256">
<path d="M0 0 C0.91657245 -0.00453111 1.83314491 -0.00906223 2.77749228 -0.01373065 C5.85584249 -0.02641405 8.93401666 -0.02475172 12.01239014 -0.02310181 C14.2167229 -0.02908466 16.42105357 -0.03588964 18.62538147 -0.04345703 C24.61930342 -0.06115058 30.6131683 -0.06581387 36.60711384 -0.0670886 C41.60953239 -0.06898634 46.61193761 -0.07634258 51.61435103 -0.08343279 C62.74298999 -0.09879654 73.87160784 -0.10476957 85.00025514 -0.10342209 C85.66796574 -0.10334218 86.33567635 -0.10326227 87.02362061 -0.10317993 C87.69214844 -0.10309817 88.36067627 -0.10301641 89.04946253 -0.10293217 C99.87852861 -0.10211966 110.70745547 -0.12124813 121.53648129 -0.14945666 C132.66049465 -0.17820444 143.7844506 -0.19162984 154.90850329 -0.19026911 C161.15182647 -0.18975911 167.39499218 -0.19546327 173.63828278 -0.21662521 C179.51193158 -0.23598984 185.38527244 -0.23614395 191.25893211 -0.22159195 C193.41318143 -0.21950046 195.56744992 -0.22422495 197.72166634 -0.23631287 C200.66612415 -0.25176303 203.60951992 -0.24245822 206.55395508 -0.22705078 C207.40338723 -0.23733791 208.25281939 -0.24762503 209.12799191 -0.25822389 C215.77154902 -0.18157717 221.0237311 1.62014859 226.05438232 6.04867554 C226.50039795 6.61586304 226.94641357 7.18305054 227.40594482 7.76742554 C228.09817139 8.61820679 228.09817139 8.61820679 228.80438232 9.48617554 C231.5942031 13.53763501 232.2830442 16.39125639 232.29837036 21.35122681 C232.31116531 23.2226963 232.31116531 23.2226963 232.32421875 25.13197327 C232.32351974 26.51208509 232.32259668 27.89219681 232.32147217 29.27230835 C232.32745757 30.72788335 232.33426315 32.18345518 232.34182739 33.63902283 C232.35949652 37.59169337 232.36418324 41.54427731 232.36545897 45.49698353 C232.36688096 47.96817995 232.37115154 50.43935439 232.3764534 52.91054535 C232.39495886 61.53684384 232.40312364 70.16308052 232.40155029 78.78939819 C232.40034974 86.82148132 232.42143369 94.85329535 232.45303762 102.88531041 C232.47922446 109.78738263 232.48991653 116.68936711 232.48863947 123.5914886 C232.48813041 127.71097314 232.49378206 131.8302187 232.51499557 135.94965363 C232.53441794 139.82722628 232.53447549 143.70433305 232.51996231 147.58192253 C232.51787782 149.00084809 232.52255367 150.41980311 232.53468323 151.83867836 C232.60582762 160.74142711 232.30309274 167.3167038 226.28485107 174.29086304 C225.72668701 174.73687866 225.16852295 175.18289429 224.59344482 175.64242554 C224.03785889 176.10390991 223.48227295 176.56539429 222.90985107 177.04086304 C217.68609959 180.45096276 213.02840441 180.55685138 206.979599 180.53485107 C205.60958401 180.54164774 205.60958401 180.54164774 204.21189195 180.54858172 C201.15046691 180.56124511 198.08921933 180.55960409 195.027771 180.55795288 C192.83314281 180.56393692 190.63851673 180.57074218 188.44389343 180.57830811 C182.48102137 180.59598816 176.5182067 180.60066434 170.55531096 180.60193968 C165.57769549 180.60383841 160.6000934 180.61119568 155.62248307 180.61828387 C144.54920971 180.63364264 133.47595898 180.63962111 122.40267631 180.63827316 C121.7385181 180.63819325 121.0743599 180.63811334 120.39007568 180.63803101 C119.72510397 180.63794924 119.06013225 180.63786748 118.37500987 180.63778324 C107.60097256 180.63697054 96.82707512 180.65610504 86.05307826 180.68430774 C74.9832686 180.71305548 63.91353048 180.72648095 52.84368306 180.72512019 C46.6316736 180.72461024 40.41982241 180.73031185 34.20784569 180.75147629 C28.36455182 180.77084077 22.5215675 180.77099513 16.67826271 180.75644302 C14.53530043 180.75435161 12.39231886 180.75907557 10.24938965 180.77116394 C7.32031021 180.78661501 4.39229826 180.77730878 1.46324158 180.76190186 C0.61838249 180.77218898 -0.2264766 180.78247611 -1.09693748 180.79307497 C-7.72575063 180.716203 -12.97383556 178.90414396 -17.99249268 174.48617554 C-18.4385083 173.91898804 -18.88452393 173.35180054 -19.34405518 172.76742554 C-19.80553955 172.20023804 -20.26702393 171.63305054 -20.74249268 171.04867554 C-23.54026528 166.98566819 -24.2220276 164.11986417 -24.24320984 159.1456604 C-24.25318497 157.88959991 -24.2631601 156.63353943 -24.2734375 155.3394165 C-24.27433327 153.94985975 -24.27499686 152.56030282 -24.27545166 151.17074585 C-24.28307442 149.70531797 -24.29150212 148.23989409 -24.30067444 146.7744751 C-24.32261782 142.79495516 -24.33141837 138.81551206 -24.33650088 134.83593845 C-24.34014535 132.34799096 -24.34638595 129.86006355 -24.35350227 127.37212372 C-24.37799846 118.68747576 -24.39104855 110.00288752 -24.39459229 101.31820679 C-24.39822532 93.23153908 -24.42810338 85.14525144 -24.46999687 77.05869985 C-24.50472982 70.10991853 -24.52014126 63.16126294 -24.52083832 56.21239543 C-24.52163027 52.06490244 -24.53033022 47.91779643 -24.55883598 43.77039337 C-24.58506774 39.86648617 -24.58719398 35.96328531 -24.57118034 32.05932999 C-24.56936973 30.63072033 -24.57602162 29.20206959 -24.59199905 27.77354813 C-24.67651203 19.72309467 -24.55150656 13.44089563 -18.96905518 7.26742554 C-12.99746836 1.31437001 -8.28465973 -0.02989355 0 0 Z M3.03094482 15.26742554 C7.96760942 21.04653737 7.96760942 21.04653737 13.15576172 26.51922607 C13.91839325 27.28467743 14.68102478 28.05012878 15.46676636 28.83877563 C16.28361908 29.65360413 17.1004718 30.46843262 17.94207764 31.30795288 C18.81756256 32.18519012 19.69304749 33.06242737 20.59506226 33.96624756 C22.97719394 36.35200589 25.36152725 38.73551876 27.74706364 41.11786985 C30.24869193 43.61695278 32.74786416 46.11848998 35.24743652 48.61962891 C39.43845135 52.8124574 43.63155807 57.00318516 47.8258667 61.19271851 C52.67661925 66.0380122 57.52373495 70.88692175 62.36901212 75.73769033 C66.53544408 79.90865514 70.70381505 84.07767464 74.87382388 88.24506342 C77.36200127 90.73168127 79.84949666 93.21897122 82.33524323 95.70801926 C85.09977152 98.47596367 87.86836095 101.23982325 90.63739014 104.00326538 C91.46233978 104.83023926 92.28728943 105.65721313 93.13723755 106.50924683 C93.88858978 107.25777924 94.63994202 108.00631165 95.4140625 108.77752686 C96.06811695 109.43120428 96.7221714 110.08488171 97.39604568 110.75836754 C99.50280102 112.70296211 100.82442745 113.22808889 103.65594482 113.76742554 C111.72115618 112.57257941 118.63572026 102.80590424 124.2008667 97.22689819 C125.07985626 96.34966095 125.95884583 95.47242371 126.86447144 94.56860352 C129.25010058 92.18659531 131.63349195 89.80239331 134.01571465 87.41698122 C136.51525809 84.91488935 139.01725923 82.41525693 141.51885986 79.91522217 C145.70990739 75.72598676 149.89885744 71.53466272 154.08660889 67.34213257 C158.93250795 62.49076781 163.7820325 57.64304947 168.63340712 52.79716074 C172.80522371 48.629873 176.97510007 44.46065135 181.14334154 40.28978765 C183.6304709 37.80109745 186.11827551 35.31309239 188.60783386 32.82683182 C191.37347451 30.06460024 194.13504064 27.29831796 196.8961792 24.53158569 C197.72517731 23.70461182 198.55417542 22.87763794 199.40829468 22.02560425 C200.15400726 21.27707184 200.89971985 20.52853943 201.66802979 19.75732422 C202.64798038 18.77680808 202.64798038 18.77680808 203.64772797 17.77648354 C205.14356178 16.48574336 205.14356178 16.48574336 205.03094482 15.26742554 C138.37094482 15.26742554 71.71094482 15.26742554 3.03094482 15.26742554 Z M-8.96905518 27.26742554 C-8.96905518 68.84742554 -8.96905518 110.42742554 -8.96905518 153.26742554 C-4.47532196 149.41565421 -0.18383866 145.62566715 3.96624756 141.44564819 C4.5134697 140.89857208 5.06069183 140.35149597 5.62449646 139.7878418 C7.40689536 138.00475421 9.18574006 136.21816671 10.96453857 134.43148804 C12.20984828 133.18431044 13.45538104 131.93735553 14.7011261 130.69061279 C17.95999848 127.42794449 21.215855 124.16228303 24.47106934 120.89596558 C27.80104261 117.55571492 31.13389155 114.21833623 34.4664917 110.88070679 C40.99077622 104.34573661 47.51187478 97.80759723 54.03094482 91.26742554 C52.39992483 87.13663919 49.4073946 84.36945908 46.31195068 81.30551147 C45.72805069 80.71971313 45.1441507 80.13391479 44.54255676 79.53036499 C42.61514984 77.59925911 40.68064772 75.67543741 38.74578857 73.75180054 C37.40546334 72.41266738 36.06550752 71.07316438 34.72590637 69.73330688 C31.92043157 66.92939526 29.11163068 64.1288737 26.30023193 61.3309021 C22.68781896 57.73551967 19.082065 54.13354826 15.47853756 50.52926254 C12.71400808 47.76500423 9.94688591 45.00335405 7.17886543 42.24259186 C5.84773033 40.91464892 4.51720884 39.58609061 3.18729973 38.25691986 C1.33422101 36.4059966 -0.52210482 34.55839651 -2.37945557 32.71176147 C-2.93376251 32.15700134 -3.48806946 31.60224121 -4.05917358 31.03067017 C-6.16335098 28.43762485 -6.16335098 28.43762485 -8.96905518 27.26742554 Z M211.97192383 31.20202637 C211.10769806 32.07164505 211.10769806 32.07164505 210.22601318 32.95883179 C209.62114578 33.56355316 209.01627838 34.16827454 208.39308167 34.7913208 C206.38327296 36.80182927 204.37703487 38.8158627 202.37078857 40.82992554 C200.98237996 42.2201981 199.59375121 43.61025086 198.20491028 45.00009155 C194.5415436 48.66728518 190.88118918 52.33747139 187.22143555 56.00827026 C183.48981721 59.75009892 179.75538338 63.48911526 176.0211792 67.22836304 C168.68832895 74.57195374 161.35865505 81.91870617 154.03094482 89.26742554 C155.66196481 93.39821189 158.65449505 96.165392 161.74993896 99.2293396 C162.33383896 99.81513794 162.91773895 100.40093628 163.51933289 101.00448608 C165.44673981 102.93559196 167.38124193 104.85941367 169.31610107 106.78305054 C170.65642631 108.1221837 171.99638213 109.46168669 173.33598328 110.80154419 C176.14145808 113.60545581 178.95025897 116.40597738 181.76165771 119.20394897 C185.37407069 122.7993314 188.97982465 126.40130281 192.58335209 130.00558853 C195.34788157 132.76984685 198.11500373 135.53149702 200.88302422 138.29225922 C202.21415932 139.62020216 203.54468081 140.94876047 204.87458992 142.27793121 C206.72766864 144.12885447 208.58399447 145.97645456 210.44134521 147.8230896 C210.99565216 148.37784973 211.54995911 148.93260986 212.12106323 149.50418091 C214.22524063 152.09722622 214.22524063 152.09722622 217.03094482 153.26742554 C217.03094482 111.68742554 217.03094482 70.10742554 217.03094482 27.26742554 C214.84591359 27.26742554 213.43760841 29.74019384 211.97192383 31.20202637 Z M60.84750366 106.19091797 C60.27494843 106.76909271 59.70239319 107.34726746 59.11248779 107.94296265 C58.50747437 108.54607773 57.90246094 109.14919281 57.27911377 109.77058411 C55.27219473 111.77378574 53.27258761 113.78411988 51.27313232 115.79476929 C49.88629979 117.1827931 48.49909831 118.57044838 47.11154175 119.95774841 C44.20152271 122.86933395 41.29490253 125.78425699 38.39080811 128.70175171 C34.65858984 132.45096791 30.91981448 136.19355955 27.17870903 139.9339056 C24.31322216 142.79966372 21.45034402 145.66801565 18.5883522 148.53726387 C17.21017036 149.91863924 15.83137197 151.29939976 14.45196152 152.67954826 C12.52897561 154.60469006 10.60931218 156.53308117 8.69061279 158.4624939 C8.11400909 159.03864441 7.5374054 159.61479492 6.94332886 160.20840454 C4.259154 162.38099951 4.259154 162.38099951 3.03094482 165.26742554 C69.69094482 165.26742554 136.35094482 165.26742554 205.03094482 165.26742554 C201.1791735 160.77369232 197.38918644 156.48220903 193.20916748 152.3321228 C192.38855331 151.5112896 192.38855331 151.5112896 191.55136108 150.6738739 C189.7682735 148.89147501 187.981686 147.11263031 186.19500732 145.33383179 C184.94782973 144.08852209 183.70087482 142.84298932 182.45413208 141.59724426 C179.19146378 138.33837188 175.92580232 135.08251536 172.65948486 131.82730103 C169.31923421 128.49732775 165.98185551 125.16447881 162.64422607 121.83187866 C156.10925589 115.30759414 149.57111652 108.78649558 143.03094482 102.26742554 C139.4780089 103.9336969 137.29383458 105.83399626 134.58172607 108.69711304 C133.30845459 110.01389038 133.30845459 110.01389038 132.00946045 111.35726929 C130.2453479 113.20021764 128.48741932 115.04910723 126.73602295 116.90414429 C120.6936266 123.12412425 115.51676117 127.35312281 106.84344482 128.79867554 C105.91531982 128.78836304 104.98719482 128.77805054 104.03094482 128.76742554 C102.63875732 128.78289429 102.63875732 128.78289429 101.21844482 128.79867554 C90.69891867 127.04542118 84.62530159 120.43143573 77.59344482 113.01742554 C76.10955845 111.47077877 74.62205608 109.92792126 73.12882996 108.39028931 C71.78972367 107.00880522 70.46189774 105.6164132 69.13470459 104.22348022 C65.31604947 100.67293307 64.09546292 102.96893665 60.84750366 106.19091797 Z " fill="#F4F4F4" transform="translate(23.96905517578125,37.732574462890625)"/>
</svg>
