<?xml version="1.0" encoding="UTF-8"?>
<svg version="1.1" xmlns="http://www.w3.org/2000/svg" width="256" height="256">
<path d="M0 0 C20.1076056 -1.23107789 39.11552251 8.2377723 53.9375 21.1875 C54.52402344 21.75855469 55.11054687 22.32960938 55.71484375 22.91796875 C59.46969135 24.69590513 63.00313905 23.67670678 67 23 C68.59486891 22.74753802 70.18992558 22.49625968 71.78515625 22.24609375 C72.62892822 22.11348145 73.4727002 21.98086914 74.34204102 21.84423828 C97.77711339 18.34043943 124.19828235 17.64104001 147.21875 23.87109375 C151.32123405 24.06123697 152.81665998 22.27026552 155.875 19.625 C171.13826946 7.08405496 187.94367141 -0.35186541 208 0 C216.97153337 18.72320007 217.5992409 37.45423588 213.21484375 57.609375 C212.94814919 61.81830002 213.77967547 62.80608165 216.5 65.9375 C221.82717652 72.77342232 225.09943179 79.88371377 228 88 C228.2273584 88.63099609 228.4547168 89.26199219 228.68896484 89.91210938 C235.7523225 110.86872778 234.49711048 140.03001583 228 161 C227.68651611 162.02577148 227.68651611 162.02577148 227.36669922 163.07226562 C221.61817394 181.03694538 209.26932034 194.4348471 192.73046875 203.15625 C148.55392728 225.40027506 78.76646391 224.33366025 32.17578125 209.4453125 C21.21743643 205.75229637 11.10182289 201.2373899 2 194 C1.37996094 193.54238281 0.75992187 193.08476562 0.12109375 192.61328125 C-15.48532427 180.42840454 -21.64692609 159.8774555 -24 141 C-25.19969255 115.77336138 -26.16310397 88.35690896 -8.9375 67.9375 C-5.09651161 62.71375579 -4.60638335 59.61367465 -5.45483398 53.21386719 C-6.0869492 49.57784584 -6.79327369 45.96219313 -7.54736328 42.34960938 C-10.28921755 28.11681246 -6.12968543 12.79238699 0 0 Z M31 109 C30.2265625 109.474375 29.453125 109.94875 28.65625 110.4375 C18.97170636 117.15211693 14.16109053 127.11213471 11.4453125 138.28125 C8.9597297 153.45638709 12.05968507 167.88960774 20.76171875 180.56640625 C32.64005392 195.38604346 53.05138093 199.82058394 71.03153992 201.81570053 C76.46342528 202.3242674 81.90871123 202.30485603 87.359375 202.30078125 C88.66924377 202.30506638 89.97911255 202.3093515 91.32867432 202.31376648 C94.07820737 202.3211455 96.82761186 202.32099961 99.57714844 202.31567383 C102.35205307 202.31104628 105.12651905 202.31795832 107.90136719 202.33618164 C148.52230795 202.80363111 148.52230795 202.80363111 183.8125 184.75 C194.32829109 173.3011531 197.35939849 160.04458579 197.2109375 144.88671875 C196.66988849 134.91738972 193.68921745 127.13995727 188 119 C187.2575 117.9275 186.515 116.855 185.75 115.75 C178.8407477 108.8407477 170.36202573 104.78827593 160.58642578 104.671875 C159.77415527 104.67703125 158.96188477 104.6821875 158.125 104.6875 C157.2469873 104.68878906 156.36897461 104.69007812 155.46435547 104.69140625 C148.91147073 104.7835868 142.59839943 105.53586479 136.125 106.5 C114.14041755 109.64196172 90.98406828 109.30764155 69.03857422 106.08325195 C49.39632508 103.19885553 49.39632508 103.19885553 31 109 Z " fill="#FFFFFF" transform="translate(24,19)"/>
<path d="M0 0 C6.35191686 5.3638409 10.2200329 12.00362758 10.99707031 20.35986328 C11.78746995 33.20812208 10.44777492 44.26540985 1.8125 54.375 C-2.14573383 57.9839779 -6.39445543 57.87845696 -11.53125 57.7265625 C-16.4044408 57.08158136 -19.00160539 54.59577387 -22.3125 51.1875 C-29.12356079 40.97090882 -30.7345742 30.00708278 -28.57421875 17.953125 C-26.51251952 10.2149411 -23.36519145 4.55512649 -17.1875 -0.625 C-11.39458831 -3.76282717 -5.70096353 -2.90637356 0 0 Z " fill="#FFFFFF" transform="translate(186.1875,139.625)"/>
<path d="M0 0 C7.426613 4.55306486 10.54579182 10.71008588 13.25 18.6875 C15.65261774 29.70490928 14.3022616 40.65022698 8.625 50.375 C6.06707282 54.20029896 3.14206283 56.92896858 -1 59 C-6.07373719 59.50571563 -10.56811368 59.59436791 -15.3125 57.625 C-22.61777749 50.48961269 -26.17899668 41.63787156 -26.38037109 31.49169922 C-26.35348716 19.95848974 -24.46504318 10.5057405 -16 2 C-10.72849938 -1.2822551 -5.86197859 -1.96406499 0 0 Z " fill="#FFFFFF" transform="translate(85,138)"/>
</svg>
