<?xml version="1.0" encoding="UTF-8"?>
<svg version="1.1" xmlns="http://www.w3.org/2000/svg" width="256" height="256">
<path d="M0 0 C0.82935059 0.00491455 1.65870117 0.0098291 2.51318359 0.01489258 C15.67083373 0.26327029 27.32351896 3.54274646 37.1875 12.5390625 C51.92945398 28.62763727 51.122764 52.84928972 51.0078125 73.24609375 C51.00407283 75.2200557 51.00123038 77.19401953 50.99923706 79.16798401 C50.99167562 84.31187247 50.97209335 89.45564428 50.9498291 94.5994873 C50.92556863 100.79887736 50.91655396 106.99830687 50.90492249 113.19773102 C50.88566313 122.5694013 50.84728868 131.94081667 50.8125 141.3125 C36.2925 141.3125 21.7725 141.3125 6.8125 141.3125 C6.75642578 132.49917969 6.75642578 132.49917969 6.69921875 123.5078125 C6.6689191 119.7708048 6.63775818 116.03384358 6.60351562 112.296875 C6.54932501 106.37404814 6.49820996 100.4513132 6.46606445 94.52832031 C6.43992829 89.7495049 6.39945379 84.9710007 6.34931374 80.192379 C6.33271448 78.37531297 6.32115721 76.55819319 6.31488609 74.74106216 C6.60060432 57.37610784 6.60060432 57.37610784 -1.6015625 42.65234375 C-6.19348465 38.77296125 -11.69979377 38.93008316 -17.44140625 39.0703125 C-23.31290371 39.58814016 -27.44421577 41.14599634 -31.5 45.5 C-37.37991948 53.07359194 -38.31680353 61.80530005 -38.39282227 71.15380859 C-38.40272186 71.91546326 -38.41262146 72.67711792 -38.42282104 73.46185303 C-38.45422861 75.961517 -38.47911078 78.46119994 -38.50390625 80.9609375 C-38.52449373 82.70114618 -38.54549066 84.44135006 -38.56687927 86.18154907 C-38.62191477 90.74843444 -38.67140528 95.31536354 -38.71972656 99.88232422 C-38.77893929 105.36905166 -38.84506477 110.85569965 -38.91002655 116.34236145 C-39.00780283 124.6656922 -39.09681828 132.98907532 -39.1875 141.3125 C-53.3775 141.3125 -67.5675 141.3125 -82.1875 141.3125 C-82.1875 95.7725 -82.1875 50.2325 -82.1875 3.3125 C-68.6575 3.3125 -55.1275 3.3125 -41.1875 3.3125 C-40.6925 11.2325 -40.6925 11.2325 -40.1875 19.3125 C-38.393125 17.0540625 -38.393125 17.0540625 -36.5625 14.75 C-27.12270412 4.23648327 -13.86510811 -0.09780131 0 0 Z " fill="#FFFFFF" transform="translate(180.1875,89.6875)"/>
<path d="M0 0 C14.52 0 29.04 0 44 0 C44 45.54 44 91.08 44 138 C29.48 138 14.96 138 0 138 C0 92.46 0 46.92 0 0 Z " fill="#FFFFFF" transform="translate(28,93)"/>
<path d="M0 0 C5.50485988 4.76123903 9.55192851 10.43724388 10.27734375 17.82421875 C10.53715044 26.1068559 9.44217618 33.32298282 3.6171875 39.61328125 C-3.1386219 45.40630622 -9.96147946 46.78067692 -18.73046875 46.41015625 C-26.32489641 45.45745027 -30.76412308 42.01523268 -35.5234375 36.13671875 C-39.64204094 30.17672912 -40.87944763 24.16994107 -40 17 C-38.68683812 10.48890568 -36.06728507 5.36444016 -31 1 C-21.09500677 -5.27888781 -10.27624423 -6.06383337 0 0 Z " fill="#FFFFFF" transform="translate(65,29)"/>
</svg>
